<svg width="96" height="96" xmlns="http://www.w3.org/2000/svg" xmlns:xlink="http://www.w3.org/1999/xlink" xml:space="preserve" overflow="hidden"><g transform="translate(-665 0)"><path d="M730.1 75 730.9 66 742.5 66 741 75 730.1 75ZM683.5 66 695.1 66 695.9 75 685.1 75 683.5 66ZM693 40 693.8 49 680.6 49 679.1 40 693 40ZM712.3 20.9C712.6 20.6 712.9 20.6 713 20.6 713.1 20.6 713.5 20.6 713.7 20.9L726.8 33.9 699.2 33.9 712.3 20.9ZM731.9 53 744.7 53 743.2 62 731.2 62 731.9 53ZM715 62 715 53 727.9 53 727.1 62 715 62ZM715 66 726.8 66 726 75 715 75 715 66ZM711 66 711 75 699.9 75 699.1 66 711 66ZM711 49 697.8 49 697 40 711 40 711 49ZM715 40 729 40 728.2 49 715 49 715 40ZM694.8 62 682.8 62 681.3 53 694.1 53 694.8 62ZM698.1 53 711 53 711 62 698.8 62 698.1 53ZM745.4 49 732.3 49 733.1 40 747 40 745.4 49ZM735.2 34 735.2 34 718 16.7C716.7 15.4 714.9 14.6 713 14.6 711.1 14.6 709.4 15.3 708.1 16.7L690.9 33.9 690.8 34 672 34 679.4 77.7C679.7 79.6 681.4 81 683.3 81L742.5 81C744.4 81 746.1 79.6 746.4 77.7L754 34 735.2 34Z"/></g></svg>