<svg fill="#ffffff" width="96" height="96" xmlns="http://www.w3.org/2000/svg" xmlns:xlink="http://www.w3.org/1999/xlink" xml:space="preserve" overflow="hidden"><g transform="translate(-558 0)"><path d="M589 31 578 31 578 24 589 24 589 31ZM604 24 604 31 593 31 593 24 604 24ZM619 24 619 31 608 31 608 24 619 24ZM634 24 634 31 623 31 623 24 634 24ZM634 42 623 42 623 35 634 35 634 42ZM634 50.5 623 51.5 623 46 634 46 634 50.5ZM589 46 589 54.5 578 55.5 578 46 589 46ZM589 42 578 42 578 35 589 35 589 42ZM604 42 593 42 593 35 604 35 604 42ZM608 42 608 35 619 35 619 42 608 42ZM604 53.2 593 54.2 593 46 604 46 604 53.2ZM608 46 619 46 619 51.8 608 52.8 608 46ZM640 56 640 18 578 18 578 17C578 12 574 8 569 8 567.3 8 566 9.3 566 11 566 12.7 567.3 14 569 14 570.7 14 572 15.3 572 17L572 67C572 72 576 76 581 76L584 76 628 76 637 76C638.7 76 640 74.7 640 73 640 71.3 638.7 70 637 70L581 70C579.3 70 578 68.7 578 67L578 61.5 640 56Z"/><path d="M590 82C590 85.3137 587.314 88 584 88 580.686 88 578 85.3137 578 82 578 78.6863 580.686 76 584 76 587.314 76 590 78.6863 590 82Z"/><path d="M634 82C634 85.3137 631.314 88 628 88 624.686 88 622 85.3137 622 82 622 78.6863 624.686 76 628 76 631.314 76 634 78.6863 634 82Z"/></g></svg>