<svg fill="white" width="96" height="96" xmlns="http://www.w3.org/2000/svg" xmlns:xlink="http://www.w3.org/1999/xlink" xml:space="preserve" overflow="hidden"><g transform="translate(-1024 -12)"><path d="M1105.71 25.207C1106.09 24.8097 1106.08 24.1767 1105.68 23.793 1105.29 23.4187 1104.68 23.4187 1104.29 23.793L1093 35.086 1093 38.5 1064 38.5 1064.01 42.6 1065.33 55.948C1066.03 56.0547 1066.71 56.1807 1067.38 56.326L1066 42.5 1066 40.5 1098.93 40.5 1098.93 42.422 1095.01 92.5 1080.92 92.5C1080.48 93.2511 1079.93 93.9266 1079.28 94.5L1096.85 94.5 1100.93 42.5 1100.93 38.5 1095 38.5 1095 35.914Z"/><path d="M1080 82.528C1081.25 81.6115 1082 80.153 1082 78.6L1082 78.4C1082 76.847 1081.25 75.3885 1080 74.472L1080 70.5C1080 62.967 1071.38 57.5 1059.5 57.5 1047.62 57.5 1039 62.967 1039 70.5L1039 74.472C1037.75 75.3885 1037 76.847 1037 78.4L1037 78.6C1037 80.153 1037.75 81.6115 1039 82.528L1039 88.5C1039 91.8123 1041.69 94.4967 1045 94.5L1074 94.5C1077.31 94.4967 1080 91.8123 1080 88.5ZM1041 73.5 1041 70.5C1041 64.126 1048.78 59.5 1059.5 59.5 1070.22 59.5 1078 64.126 1078 70.5L1078 73.5 1041 73.5ZM1039 78.4C1039 76.7984 1040.3 75.5 1041.9 75.5L1077.1 75.5C1078.7 75.5 1080 76.7984 1080 78.4L1080 78.6C1080 80.2016 1078.7 81.5 1077.1 81.5L1041.9 81.5C1040.3 81.5 1039 80.2016 1039 78.6ZM1069.09 83.5 1064.5 88.086 1059.91 83.5ZM1078 88.5C1078 90.7091 1076.21 92.5 1074 92.5L1045 92.5C1042.79 92.5 1041 90.7091 1041 88.5L1041 83.5 1057.09 83.5 1064.5 90.914 1071.91 83.5 1078 83.5Z"/></g></svg>