<svg fill="white" width="96" height="96" xmlns="http://www.w3.org/2000/svg" xmlns:xlink="http://www.w3.org/1999/xlink" xml:space="preserve" overflow="hidden"><g transform="translate(-916 -12)"><path d="M966.3 74.2 933.5 74.2C931.6 74.2 930 75.8 930 77.7 930 79.6 931.6 81.2 933.5 81.2L949.7 81.2 954.7 85.9 959.8 81.2 966.3 81.2C968.2 81.2 969.8 79.6 969.8 77.7 969.8 75.8 968.2 74.2 966.3 74.2Z"/><path d="M954.5 91.3 947.6 84.9 929.8 84.9 929.8 89.6C929.8 92.2 931.9 94.3 934.5 94.3L965 94.3C967.6 94.3 969.7 92.2 969.7 89.6L969.7 84.9 961.5 84.9 954.5 91.3Z"/><path d="M949.7 55C938.7 55 929.8 59.2 929.8 70.2L969.6 70.2C969.6 59.3 960.7 55 949.7 55Z"/><path d="M997.6 29.2C998.4 28.4 998.4 27.2 997.6 26.4 996.8 25.6 995.6 25.6 994.8 26.4L984.8 36.7 984.4 40.4 956.8 40.4 956.8 43.4 957.5 51.9C967.8 54 973.7 60.6 973.7 70.4L973.7 89.7C973.7 91.4 973.2 93 972.3 94.4L988.9 94.4 992.9 43.4 992.9 40.4 988.7 40.4 988.9 38.4 997.6 29.2Z"/></g></svg>