<svg fill="white" width="96" height="96" xmlns="http://www.w3.org/2000/svg" xmlns:xlink="http://www.w3.org/1999/xlink" xml:space="preserve" overflow="hidden"><g transform="translate(-724 -12)"><path d="M797.6 47.3C798.6 45.5 798.9 43.4 798.4 41.4 800.2 38.9 800.6 35.6 799 32.7 798.6 32 798.2 31.4 797.6 30.9 799 31.3 800.1 32.4 800.6 34 800.6 34.1 800.6 34.2 800.6 34.3 802.5 34.4 804.1 35.7 804.7 37.5 805.4 39.9 804 42.4 801.6 43.1 802 44.4 801.7 45.7 801 46.8 799.9 46.9 798 47.3 797.6 47.3ZM791 93.5 785.3 93.5 788.6 54.6C792.4 54.2 795.7 53.7 798.4 53.2L791 93.5ZM781.3 93.5 774 93.5 774 55.5C777.8 55.5 781.3 55.3 784.6 55L781.3 93.5ZM771.8 39.8C772.7 39.2 773.8 39 774.9 39.2 774.9 39.1 775 39.1 775 39 776.2 37.1 778.6 36.6 780.5 37.7 782.4 38.8 782.9 41.3 781.8 43.2 781.8 43.3 781.7 43.3 781.7 43.4 782.7 44.7 782.9 46.5 782 48 781.7 48.5 781.3 48.9 780.8 49.2 780.2 49.2 776.2 49.4 773.1 49.4 773.7 48.2 774.1 46.9 774.1 45.4 774 43.3 773.2 41.3 771.8 39.8ZM770 93.5 762.7 93.5 759.4 55C762.6 55.3 766.2 55.4 770 55.5L770 93.5ZM753.1 93.5 746.4 53.3C748.9 53.8 751.9 54.2 755.4 54.6L758.7 93.5 753.1 93.5ZM743 44.5C743 42.2 744.9 40.3 747.2 40.3 747.7 40.3 748.2 40.4 748.6 40.6 748.6 40.5 748.6 40.4 748.6 40.3 748.6 38 747.8 36.1 750.1 36.1 750.4 36.1 750.6 36.1 750.8 36.2 750.8 36.3 750.9 36.4 750.9 36.5 751.1 36.8 751.2 37.1 751.4 37.3 751.4 38.5 751.8 39.7 752.3 40.9 751.4 42.3 750.8 43.9 750.8 45.7 750.8 46.6 750.9 47.4 751.2 48.3 748 47.8 745.4 47.3 743.4 46.9 743.2 46 743 45.3 743 44.5ZM756.4 28.2C756.7 28 757 27.9 757.3 27.8 757.6 26.7 758.4 25.7 759.5 25.1 761.8 23.9 764.6 24.7 765.8 27 765.9 27.2 766 27.5 766.1 27.7 767.8 27.6 769.6 28.5 770.4 30.1 771.5 32.1 770.9 34.6 769.2 35.9 767.6 33.9 765.2 32.6 762.5 32.6 759.7 32.6 757.2 34 755.7 36.1 755.7 36 755.7 36 755.7 35.9 755.3 35.5 754.9 35.1 754.6 34.5 753.3 32.2 754.2 29.4 756.4 28.2ZM767.7 49.4C763.5 49.3 759.7 49 756.4 48.7 755.6 47.9 755.1 46.8 755.1 45.5 755.1 43.5 756.4 41.9 758.1 41.3 758.1 41.2 758.1 41.1 758.1 41 758.1 38.5 760.1 36.5 762.6 36.5 765.1 36.5 767.1 38.5 767.1 41 767.1 41.1 767.1 41.2 767.1 41.3 768.9 41.9 770.1 43.6 770.1 45.5 770 47.2 769 48.7 767.7 49.4ZM775.2 28.2C775.7 28.2 776.2 28.3 776.6 28.5 776.6 28.4 776.6 28.3 776.6 28.2 776.6 25.9 778.5 24 780.8 24 783.1 24 785 25.9 785 28.2 785 28.3 785 28.4 785 28.5 785 28.5 785 28.5 784.9 28.5 783.6 28.5 782.2 28.8 781.1 29.5 779.6 30.3 778.4 31.6 777.6 33.2 776.6 33.3 775.6 33.6 774.6 34 775 32.1 774.7 30.2 773.9 28.5 774.5 28.3 774.9 28.2 775.2 28.2ZM788.5 34.4C788.9 33.8 789.3 33.4 790 33 792 31.9 794.5 32.7 795.5 34.6 796.6 36.6 795.8 39.1 793.9 40.1 793.7 40.2 793.5 40.3 793.4 40.3 793.7 40.6 794 40.9 794.2 41.3 795.3 43.3 794.5 45.8 792.6 46.8 791 47.6 789.2 47.4 787.9 46.2 787.7 46.4 787.4 46.6 787.1 46.8 786.9 46.9 786.7 47 786.4 47.1 786.6 45.8 786.5 44.4 786.1 43.1 787.1 39.8 785.7 36 782.7 34.1 782.5 34 782.3 33.9 782 33.8 782.3 33.4 782.7 33.1 783.2 32.8 785 32 787.3 32.6 788.5 34.4ZM808.6 36.4C807.9 33.8 806 31.8 803.6 30.9 801.7 27.7 797.8 26 794 27.1 792.9 27.4 791.9 28 791 28.7 790.7 28.7 790.4 28.8 790.2 28.8 789.9 28.4 789.6 28.1 789.2 27.8 788.9 23.4 785.3 20 780.9 20 777.7 20 775 21.8 773.6 24.4 772.8 24.6 772.1 24.8 771.4 25.2 770.6 24.6 769.6 24.1 768.6 23.9 767 21.8 764.5 20.5 761.7 20.5 760.3 20.5 758.8 20.9 757.6 21.5 756.2 22.3 755 23.4 754.3 24.7 751.7 26.2 750.1 29 750 31.9 746.9 32 745.6 33.6 745.6 36.3 741.8 37.1 739 40.4 739 44.4 739 44.8 739 45.4 739 45.4L748 99.4 796 99.4 806 45.4 805.7 45.2C808.3 43.2 809.5 39.7 808.6 36.4Z"/></g></svg>