<svg fill="white" width="96" height="96" xmlns="http://www.w3.org/2000/svg" xmlns:xlink="http://www.w3.org/1999/xlink" xml:space="preserve" overflow="hidden"><g transform="translate(-827 -12)"><path d="M910 39.5C910 36.3097 907.682 33.5922 904.531 33.0889 903.541 30.6249 901.156 29.0075 898.5 29 896.904 29.0037 895.365 29.5993 894.183 30.6716 893.541 29.9606 892.764 29.385 891.898 28.9785 891.729 24.959 888.334 21.8373 884.314 22.0059 881.587 22.1203 879.153 23.7498 878.008 26.2275 876.942 26.1199 875.865 26.2532 874.858 26.6175 873.812 25.8659 872.557 25.4616 871.269 25.4615 870.826 25.4616 870.384 25.5104 869.951 25.607 868.541 22.511 864.888 21.1445 861.792 22.5548 860.041 23.3523 858.763 24.9221 858.338 26.7984 855.026 27.5409 852.944 30.8271 853.687 34.1383 853.687 34.1383 853.687 34.1384 853.687 34.1384 850.654 34.7174 848.358 37.2149 848.036 40.2858 844.333 41.3597 842.202 45.2319 843.276 48.9346 843.497 49.6966 843.846 50.4154 844.309 51.06L852.153 98 897.86 98 906.079 48.8209C906.682 47.8184 907.001 46.6702 907 45.5 907 45.33 906.993 45.1582 906.979 44.9854 908.866 43.8024 910.009 41.7279 910 39.5ZM894.723 34C897.375 33.9989 899.526 36.1481 899.527 38.8005 899.528 40.4421 898.69 41.9703 897.306 42.8525L896.56 43.3291 896.943 44.127C897.859 46.0203 897.421 48.2899 895.867 49.707 894.025 49.9598 890.693 50.3287 888.796 50.5062 888.986 50.2269 889.133 49.9211 889.233 49.5987 889.883 47.498 889.334 45.21 887.802 43.6331 889.224 40.6098 887.925 37.0064 884.902 35.5847 884.384 35.341 883.833 35.1721 883.268 35.0831 885.21 33.4868 888.058 33.676 889.773 35.5151L890.5 36.2886 891.227 35.5151C892.131 34.5455 893.398 33.9964 894.723 34ZM876.014 51 875.524 51C877.507 47.5197 876.369 43.094 872.954 41.001 872.918 40.4484 872.82 39.9017 872.662 39.371 874.005 37.96 876.167 37.7175 877.789 38.7958L878.559 39.3026 879.128 38.577C880.502 36.8122 883.047 36.4957 884.812 37.87 886.477 39.1673 886.867 41.5268 885.707 43.2909L885.2 44.0604 885.926 44.6288C887.685 45.9711 888.024 48.4859 886.682 50.2457 886.568 50.3944 886.445 50.535 886.312 50.6664 882.979 50.8835 879.559 51 876.014 51ZM857.256 50.0942C855.732 47.5091 856.591 44.1776 859.176 42.6529 859.28 42.592 859.385 42.5345 859.492 42.4805L860.037 42.2021 860.031 41.4688C860.039 38.4485 862.493 36.0061 865.514 36.0135 868.517 36.0209 870.952 38.4489 870.969 41.4521L870.948 42.1943 871.508 42.4805C874.185 43.8254 875.265 47.0858 873.92 49.7628 873.696 50.2086 873.412 50.6214 873.075 50.9895 867.79 50.9733 862.51 50.6745 857.256 50.0942ZM876.451 28.2734C876.726 28.222 877.006 28.1942 877.286 28.1904 877.67 28.1915 878.053 28.2344 878.428 28.3184L879.313 28.5137 879.595 27.6514C880.496 24.8757 883.476 23.356 886.252 24.2571 888.431 24.9644 889.906 26.9952 889.905 29.2861 889.905 29.3525 889.9 29.418 889.895 29.4834L889.846 30.3389 890.556 30.5879C891.475 30.9129 892.286 31.4873 892.898 32.2468L892.89 32.2711C892.021 32.5062 891.208 32.9146 890.5 33.4717 887.576 31.1447 883.319 31.6291 880.992 34.5537 880.805 34.7879 880.635 35.0341 880.481 35.2909 879.6 35.5737 878.796 36.0559 878.131 36.7002 877.423 36.3666 876.658 36.174 875.876 36.1332 875.791 36.1287 875.625 36.1269 875.563 36.1264 875.55 36.1264 875.547 36.1187 875.557 36.1095 877.707 34.0555 878.083 30.7588 876.451 28.2734ZM859.309 28.6634 860.119 28.5804 860.202 27.7689C860.42 25.4801 862.452 23.8011 864.741 24.0188 866.478 24.1841 867.928 25.4153 868.372 27.1028L868.666 28.1898 869.71 27.7698C871.857 26.9067 874.297 27.9473 875.16 30.0939 876.023 32.2406 874.982 34.6805 872.836 35.5436 872.338 35.7437 871.806 35.8464 871.27 35.846 871.235 35.8446 871.201 35.8413 871.167 35.836L870.317 35.775C867.189 33.1117 862.494 33.4883 859.831 36.6163 859.73 36.7347 859.633 36.8563 859.539 36.9808 857.238 36.8884 855.448 34.948 855.54 32.6468 855.624 30.5635 857.233 28.8622 859.309 28.6632ZM849.17 42.0762 850 41.8462 850 41C850.008 38.4525 851.934 36.3204 854.468 36.0538 855.368 37.5062 856.828 38.5229 858.502 38.8638 858.245 39.5497 858.092 40.2698 858.046 41.0008 855.84 42.3556 854.498 44.7606 854.503 47.3494 854.506 48.1917 854.656 49.0271 854.944 49.8185 851.624 49.3843 848.38 48.8295 845.21 48.1541L845.133 48.1375C844.502 45.4567 846.164 42.7722 848.844 42.1414 848.952 42.1161 849.061 42.0943 849.17 42.0762ZM853.847 96 846.227 50.4082C850.486 51.2604 854.786 51.8938 859.11 52.3059L862.909 96ZM874 96 864.917 96 861.133 52.4816C865.27 52.8218 869.54 53 874 53ZM876 96 876 53 876.014 53C880.469 53 884.734 52.8223 888.867 52.4827L885.083 96ZM896.167 96 887.091 96 890.89 52.3074C895.218 51.8952 899.523 51.2613 903.786 50.4082ZM905.46 43.5449 904.769 43.8809 904.915 44.6348C904.971 44.9198 904.999 45.2095 905 45.5 904.998 46.5303 904.636 47.5275 903.977 48.319 902.222 48.6819 900.447 49.0078 898.651 49.2969 899.502 47.6751 899.651 45.7756 899.063 44.041 901.956 41.648 902.36 37.3636 899.967 34.4715 898.871 33.1471 897.315 32.2871 895.61 32.0647 897.497 30.4632 900.325 30.6947 901.927 32.5818 902.347 33.0773 902.655 33.6584 902.828 34.2847L903.022 34.9761 903.739 35.0142C906.216 35.1419 908.121 37.2536 907.993 39.731 907.909 41.3695 906.938 42.8317 905.46 43.5449Z"/></g></svg>