<svg fill="white" width="96" height="96" xmlns="http://www.w3.org/2000/svg" xmlns:xlink="http://www.w3.org/1999/xlink" xml:space="preserve" overflow="hidden">
  <g transform="translate(-592 -312)">
    <path d="M639.979 322C619.004 322 602 339.004 602 359.979 602 380.954 619.004 397.958 639.979 397.958 660.954 397.958 677.958 380.954 677.958 359.979 677.967 339.013 660.979 322.009 640.013 322 640.002 322 639.99 322 639.979 322ZM639.979 395.958C620.108 395.958 604 379.85 604 359.979 604 340.108 620.108 324 639.979 324 659.85 324 675.958 340.108 675.958 359.979 675.935 379.84 659.84 395.935 639.979 395.958Z" stroke="white" stroke-width="4"/>
    <path d="M641.345 339.079C634.741 338.327 628.779 343.071 628.027 349.675 627.976 350.126 627.95 350.579 627.95 351.033L629.95 351.033C629.952 345.494 634.445 341.005 639.984 341.007 645.523 341.009 650.012 345.502 650.01 351.041 650.009 354.492 648.234 357.699 645.311 359.533 641.411 361.909 639.017 366.131 638.979 370.697L640.979 370.697C641.021 366.819 643.063 363.238 646.379 361.227 652.007 357.695 653.707 350.27 650.175 344.641 648.231 341.543 644.983 339.498 641.349 339.083Z" stroke="white" stroke-width="4"/>
    <path d="M642 379C642 380.105 641.105 381 640 381 638.895 381 638 380.105 638 379 638 377.895 638.895 377 640 377 641.105 377 642 377.895 642 379Z" stroke="white" stroke-width="4"/>
  </g>
</svg>
