<svg fill="white" width="96" height="96" xmlns="http://www.w3.org/2000/svg" xmlns:xlink="http://www.w3.org/1999/xlink" xml:space="preserve" overflow="hidden"><g transform="translate(-621 -18)"><path d="M712.2 47.7 697.6 33.4C697.2 33 696.7 32.7 696.2 32.5L682.6 27.4C681.9 27.1 681 27.3 680.5 27.9 677.6 30.9 673.5 32.8 669 32.8 664.5 32.8 660.4 30.9 657.5 27.9 657 27.3 656.1 27.2 655.4 27.4L641.8 32.5C641.3 32.7 640.8 33 640.4 33.4L625.8 47.7C625 48.6 625.1 50 626 50.7L639.4 60.8C640.2 61.4 641.3 61.4 642 60.7L647 56 647 104.7 691 104.7 691 56.1 696 60.8C696.7 61.5 697.9 61.5 698.6 60.9L712 50.7C712.9 50 713 48.6 712.2 47.7Z"/></g></svg>