<svg fill="white" width="96" height="96" xmlns="http://www.w3.org/2000/svg" xmlns:xlink="http://www.w3.org/1999/xlink" xml:space="preserve" overflow="hidden"><g transform="translate(-525 -13)"><path d="M599.5 29.3C599.8 29.4 600 29.6 600.2 29.8L614.7 44C614.7 44 614.7 44.1 614.7 44.1L601.4 54.2 601.4 54.2 596.4 49.5 594.7 48C594.3 47.6 593.7 47.6 593.3 48 593.1 48.2 593 48.4 593 48.7L593 97.6 553 97.6 553 48.6C553 48 552.6 47.6 552 47.6 551.7 47.6 551.5 47.7 551.3 47.9L549.6 49.5 544.6 54.2 544.5 54.2 531.3 44.1C531.3 44.1 531.3 44 531.3 44L545.8 29.8C546 29.6 546.2 29.5 546.5 29.4L560.1 24.3C563.5 27.8 568.1 29.8 573 29.8 577.9 29.8 582.5 27.8 585.9 24.3L599.5 29.3ZM585.9 22.2C585.4 22.2 584.8 22.4 584.5 22.8 581.5 25.9 577.3 27.7 573 27.7 568.7 27.7 564.5 25.9 561.5 22.8 561.1 22.4 560.6 22.2 560.1 22.2 559.9 22.2 559.6 22.2 559.4 22.3L545.8 27.4C545.3 27.6 544.8 27.9 544.4 28.3L529.8 42.6C529 43.5 529.1 44.8 529.9 45.5 529.9 45.5 529.9 45.5 530 45.6L543.4 55.7C543.8 56 544.2 56.1 544.7 56.1 545.2 56.1 545.7 55.9 546 55.6L551 50.9C551 50.9 551 50.9 551 50.9 551 50.9 551 50.9 551 50.9L551 99.6 595 99.6 595 51C595 51 595 51 595 51 595 51 595 51 595 51L600 55.7C600.7 56.4 601.8 56.4 602.6 55.8L616 45.6C616.9 44.9 617 43.5 616.3 42.7 616.3 42.7 616.3 42.7 616.2 42.6L601.6 28.3C601.2 27.9 600.7 27.6 600.2 27.4L586.6 22.3C586.4 22.2 585.9 22.2 585.9 22.2Z"/></g></svg>