<svg fill="white" width="96" height="96" xmlns="http://www.w3.org/2000/svg" xmlns:xlink="http://www.w3.org/1999/xlink" xml:space="preserve" overflow="hidden"><g transform="translate(-403 -13)"><path d="M418.25 68.25C418.246 72.2522 415.002 75.4956 411 75.5L410 75.5 410 91 492 91 492 75.5 491 75.5C486.996 75.5 483.75 72.2541 483.75 68.25 483.75 64.2459 486.996 61 491 61L492 61 492 45 410 45 410 61 411 61C415.002 61.0044 418.246 64.2478 418.25 68.25ZM412 59.054 412 47 429 47 429 51 431 51 431 47 490 47 490 59.054C484.921 59.6052 481.251 64.1692 481.802 69.248 482.271 73.5667 485.681 76.9773 490 77.446L490 89 431 89 431 85 429 85 429 89 412 89 412 77.446C417.079 76.8948 420.749 72.3308 420.198 67.252 419.729 62.9333 416.319 59.5227 412 59.054Z"/><path d="M429 55 431 55 431 61 429 61Z"/><path d="M429 65 431 65 431 71 429 71Z"/><path d="M429 75 431 75 431 81 429 81Z"/><path d="M442 59 475 59 475 61 442 61Z"/><path d="M456 67 475 67 475 69 456 69Z"/><path d="M449 75 475 75 475 77 449 77Z"/><path d="M473.457 42 463.923 42 423.239 34.171 421.73 42 419.693 42 421.654 31.829 473.476 41.8C473.531 41.8052 473.572 41.8543 473.566 41.9095 473.561 41.9647 473.512 42.0052 473.457 42Z"/></g></svg>