<svg fill="white" width="96" height="96" xmlns="http://www.w3.org/2000/svg" xmlns:xlink="http://www.w3.org/1999/xlink" xml:space="preserve" overflow="hidden"><g transform="translate(-285 -13)"><path d="M312 64 316 64 316 72 312 72Z"/><path d="M324 58 355 58 355 62 324 62Z"/><path d="M336 66 355 66 355 70 336 70Z"/><path d="M332 74 355 74 355 78 332 78Z"/><path d="M300 68C300 70.8 297.8 73 295 73L292 73 292 91 374 91 374 72 371 72C368.5 72 366.5 70 366.5 67.5 366.5 65 368.5 63 371 63L374 63 374 45 292 45 292 63 295 63C297.8 63 300 65.2 300 68ZM305.6 71C307.3 65.2 303.9 59.1 298 57.4L298 51 312 51 312 59 316 59 316 51 368 51 368 57.4C364.6 58.4 361.9 61.1 360.9 64.5 359.2 70.1 362.4 75.9 368 77.6L368 85 316 85 316 77 312 77 312 85 298 85 298 78.6C301.7 77.5 304.5 74.7 305.6 71Z"/><path d="M323.3 41 354 41 302.7 30.8 300.7 41 306.8 41 307.5 37.9Z"/></g></svg>