<svg fill="#ffffff" width="96" height="96" xmlns="http://www.w3.org/2000/svg" xmlns:xlink="http://www.w3.org/1999/xlink" xml:space="preserve" overflow="hidden"><g transform="translate(-592 -312)"><path d="M670 332 653 332 653 327C653 323.1 649.9 320 646 320L634 320C630.1 320 627 323.1 627 327L627 332 610 332C607.8 332 606 333.8 606 336L606 340 674 340 674 336C674 333.8 672.2 332 670 332ZM633 327C633 326.4 633.4 326 634 326L646 326C646.6 326 647 326.4 647 327L647 332 633 332 633 327Z"/><path d="M612 396C612 398.2 613.8 400 616 400L664 400C666.2 400 668 398.2 668 396L668 344 612 344 612 396ZM653 350 659 350 659 394 653 394 653 350ZM637 350 643 350 643 394 637 394 637 350ZM621 350 627 350 627 394 621 394 621 350Z"/></g></svg>